M48
; DRILL file {KiCad 5.1.2} date Fri 12 Jul 2019 22:01:30 BST
; FORMAT={-:-/ absolute / inch / decimal}
; #@! TF.CreationDate,2019-07-12T22:01:30+01:00
; #@! TF.GenerationSoftware,Kicad,Pcbnew,5.1.2
FMAT,2
INCH
T1C0.0157
T2C0.0197
T3C0.0315
T4C0.0323
T5C0.0394
T6C0.0430
T7C0.0433
T8C0.0551
T9C0.0670
T10C0.0472
T11C0.1575
T12C0.2520
%
G90
G05
T1
X6.0113Y-2.4587
X6.7524Y-3.3924
X7.5336Y-5.2364
T2
X3.9112Y-5.2431
X3.9112Y-5.2825
X3.9112Y-5.3219
X4.4388Y-5.2431
X4.4388Y-5.2825
X4.4388Y-5.3219
X3.1612Y-2.9931
X3.1612Y-3.0325
X3.1612Y-3.0719
X3.6888Y-2.9931
X3.6888Y-3.0325
X3.6888Y-3.0719
X7.6612Y-2.5244
X7.6612Y-2.5637
X7.6612Y-2.6031
X8.1888Y-2.5244
X8.1888Y-2.5637
X8.1888Y-2.6031
X3.1612Y-3.7431
X3.1612Y-3.7825
X3.1612Y-3.8219
X3.6888Y-3.7431
X3.6888Y-3.7825
X3.6888Y-3.8219
X7.6612Y-3.2744
X7.6612Y-3.3137
X7.6612Y-3.3531
X8.1888Y-3.2744
X8.1888Y-3.3137
X8.1888Y-3.3531
X6.6959Y-5.4912
X6.73Y-5.5109
X6.7641Y-5.5306
X6.9597Y-5.0344
X6.9938Y-5.0541
X7.0279Y-5.0737
X6.1612Y-4.3056
X6.1612Y-4.345
X6.1612Y-4.3844
X6.6888Y-4.3056
X6.6888Y-4.345
X6.6888Y-4.3844
X3.9112Y-3.7431
X3.9112Y-3.7825
X3.9112Y-3.8219
X4.4388Y-3.7431
X4.4388Y-3.7825
X4.4388Y-3.8219
X3.1612Y-4.4931
X3.1612Y-4.5325
X3.1612Y-4.5719
X3.6888Y-4.4931
X3.6888Y-4.5325
X3.6888Y-4.5719
X3.9112Y-2.9931
X3.9112Y-3.0325
X3.9112Y-3.0719
X4.4388Y-2.9931
X4.4388Y-3.0325
X4.4388Y-3.0719
X6.9112Y-3.6494
X6.9112Y-3.6887
X6.9112Y-3.7281
X7.4388Y-3.6494
X7.4388Y-3.6887
X7.4388Y-3.7281
X7.3454Y-5.8662
X7.3795Y-5.8859
X7.4136Y-5.9056
X7.6092Y-5.4094
X7.6433Y-5.4291
X7.6774Y-5.4487
X5.4112Y-4.9619
X5.4112Y-5.0012
X5.4112Y-5.0406
X5.9388Y-4.9619
X5.9388Y-5.0012
X5.9388Y-5.0406
X7.7204Y-5.2167
X7.7545Y-5.2364
X7.7886Y-5.2561
X7.9842Y-4.7598
X8.0183Y-4.7795
X8.0524Y-4.7992
X6.1612Y-2.8056
X6.1612Y-2.845
X6.1612Y-2.8844
X6.6888Y-2.8056
X6.6888Y-2.845
X6.6888Y-2.8844
X6.1612Y-3.5556
X6.1612Y-3.595
X6.1612Y-3.6344
X6.6888Y-3.5556
X6.6888Y-3.595
X6.6888Y-3.6344
X3.9112Y-4.4931
X3.9112Y-4.5325
X3.9112Y-4.5719
X4.4388Y-4.4931
X4.4388Y-4.5325
X4.4388Y-4.5719
X6.9112Y-4.3994
X6.9112Y-4.4387
X6.9112Y-4.4781
X7.4388Y-4.3994
X7.4388Y-4.4387
X7.4388Y-4.4781
X5.4112Y-1.9619
X5.4112Y-2.0012
X5.4112Y-2.0406
X5.9388Y-1.9619
X5.9388Y-2.0012
X5.9388Y-2.0406
X6.1612Y-2.0556
X6.1612Y-2.095
X6.1612Y-2.1344
X6.6888Y-2.0556
X6.6888Y-2.095
X6.6888Y-2.1344
X7.6612Y-4.0244
X7.6612Y-4.0637
X7.6612Y-4.1031
X8.1888Y-4.0244
X8.1888Y-4.0637
X8.1888Y-4.1031
X5.4112Y-4.2119
X5.4112Y-4.2512
X5.4112Y-4.2906
X5.9388Y-4.2119
X5.9388Y-4.2512
X5.9388Y-4.2906
X5.4112Y-2.7119
X5.4112Y-2.7512
X5.4112Y-2.7906
X5.9388Y-2.7119
X5.9388Y-2.7512
X5.9388Y-2.7906
X3.1612Y-5.2431
X3.1612Y-5.2825
X3.1612Y-5.3219
X3.6888Y-5.2431
X3.6888Y-5.2825
X3.6888Y-5.3219
X4.6612Y-2.8056
X4.6612Y-2.845
X4.6612Y-2.8844
X5.1888Y-2.8056
X5.1888Y-2.845
X5.1888Y-2.8844
X4.6612Y-2.0556
X4.6612Y-2.095
X4.6612Y-2.1344
X5.1888Y-2.0556
X5.1888Y-2.095
X5.1888Y-2.1344
X6.9112Y-2.1494
X6.9112Y-2.1887
X6.9112Y-2.2281
X7.4388Y-2.1494
X7.4388Y-2.1887
X7.4388Y-2.2281
X4.6612Y-3.5556
X4.6612Y-3.595
X4.6612Y-3.6344
X5.1888Y-3.5556
X5.1888Y-3.595
X5.1888Y-3.6344
X3.9112Y-2.2431
X3.9112Y-2.2825
X3.9112Y-2.3219
X4.4388Y-2.2431
X4.4388Y-2.2825
X4.4388Y-2.3219
X4.6612Y-5.0556
X4.6612Y-5.095
X4.6612Y-5.1344
X5.1888Y-5.0556
X5.1888Y-5.095
X5.1888Y-5.1344
X6.9112Y-2.8994
X6.9112Y-2.9387
X6.9112Y-2.9781
X7.4388Y-2.8994
X7.4388Y-2.9387
X7.4388Y-2.9781
X5.4112Y-3.4619
X5.4112Y-3.5012
X5.4112Y-3.5406
X5.9388Y-3.4619
X5.9388Y-3.5012
X5.9388Y-3.5406
X3.1612Y-2.2431
X3.1612Y-2.2825
X3.1612Y-2.3219
X3.6888Y-2.2431
X3.6888Y-2.2825
X3.6888Y-2.3219
X4.6612Y-4.3056
X4.6612Y-4.345
X4.6612Y-4.3844
X5.1888Y-4.3056
X5.1888Y-4.345
X5.1888Y-4.3844
T3
X7.8Y-1.04
X7.8Y-1.44
X7.59Y-1.13
X7.59Y-1.53
T4
X6.2Y-1.07
X6.2Y-1.67
X6.25Y-1.02
X6.25Y-1.62
X6.3Y-1.07
X6.3Y-1.67
X6.35Y-1.02
X6.35Y-1.62
X6.4Y-1.07
X6.4Y-1.67
X6.45Y-1.02
X6.45Y-1.62
X6.5Y-1.07
X6.5Y-1.67
X6.55Y-1.02
X6.55Y-1.62
X6.6Y-1.07
X6.6Y-1.67
X6.65Y-1.02
X6.65Y-1.62
X6.7Y-1.07
X6.7Y-1.67
X6.75Y-1.02
X6.75Y-1.62
X6.8Y-1.07
X6.8Y-1.67
X6.85Y-1.02
X6.85Y-1.62
X6.9Y-1.07
X6.9Y-1.67
X6.95Y-1.02
X6.95Y-1.62
X7.0Y-1.07
X7.0Y-1.67
X7.05Y-1.02
X7.05Y-1.62
X7.1Y-1.07
X7.1Y-1.67
X7.15Y-1.02
X7.15Y-1.62
X7.2Y-1.07
X7.2Y-1.67
X7.25Y-1.02
X7.25Y-1.62
X7.3Y-1.07
X7.3Y-1.67
X7.35Y-1.02
X7.35Y-1.62
T5
X8.1641Y-1.6101
X8.1641Y-1.7101
X8.1641Y-1.8101
X8.1641Y-1.9101
X8.1641Y-2.0101
T6
X7.9425Y-1.3846
X8.1Y-1.0499
X8.1Y-1.168
X8.1Y-1.3255
X8.2575Y-1.3846
T7
X3.3144Y-2.0825
X3.5356Y-2.0825
X4.8144Y-4.145
X5.0356Y-4.145
X4.0644Y-5.0825
X4.2856Y-5.0825
X3.3144Y-2.8325
X3.5356Y-2.8325
X7.8144Y-2.3638
X8.0356Y-2.3638
X3.3144Y-3.5825
X3.5356Y-3.5825
X7.8144Y-3.1138
X8.0356Y-3.1138
X6.6334Y-5.2783
X6.744Y-5.0867
X6.3144Y-4.145
X6.5356Y-4.145
X4.0644Y-3.5825
X4.2856Y-3.5825
X3.3144Y-4.3325
X3.5356Y-4.3325
X4.0644Y-2.8325
X4.2856Y-2.8325
X7.0644Y-3.4888
X7.2856Y-3.4888
X7.2829Y-5.6533
X7.3935Y-5.4617
X5.5644Y-4.8012
X5.7856Y-4.8012
X7.6579Y-5.0038
X7.7685Y-4.8122
X6.3144Y-2.645
X6.5356Y-2.645
X6.3144Y-3.395
X6.5356Y-3.395
X4.0644Y-4.3325
X4.2856Y-4.3325
X7.0644Y-4.2387
X7.2856Y-4.2387
X5.5644Y-1.8013
X5.7856Y-1.8013
X6.3144Y-1.895
X6.5356Y-1.895
X7.8144Y-3.8638
X8.0356Y-3.8638
X5.5644Y-4.0512
X5.7856Y-4.0512
X5.5644Y-2.5513
X5.7856Y-2.5513
X3.3144Y-5.0825
X3.5356Y-5.0825
X4.8144Y-2.645
X5.0356Y-2.645
X4.8144Y-1.895
X5.0356Y-1.895
X7.0644Y-1.9888
X7.2856Y-1.9888
X4.8144Y-3.395
X5.0356Y-3.395
X4.0644Y-2.0825
X4.2856Y-2.0825
X4.8144Y-4.895
X5.0356Y-4.895
X7.0644Y-2.7388
X7.2856Y-2.7388
X5.5644Y-3.3013
X5.7856Y-3.3013
T8
X7.775Y-2.6637
X7.825Y-2.7557
X8.025Y-2.7557
X8.075Y-2.6637
X3.275Y-3.8825
X3.325Y-3.9745
X3.525Y-3.9745
X3.575Y-3.8825
X7.775Y-3.4137
X7.825Y-3.5057
X8.025Y-3.5057
X8.075Y-3.4137
X6.8735Y-5.4624
X6.9782Y-5.4651
X7.0235Y-5.2026
X7.0782Y-5.2919
X6.275Y-4.445
X6.325Y-4.537
X6.525Y-4.537
X6.575Y-4.445
X4.025Y-3.8825
X4.075Y-3.9745
X4.275Y-3.9745
X4.325Y-3.8825
X3.275Y-4.6325
X3.325Y-4.7245
X3.525Y-4.7245
X3.575Y-4.6325
X4.025Y-3.1325
X4.075Y-3.2245
X4.275Y-3.2245
X4.325Y-3.1325
X7.025Y-3.7887
X7.075Y-3.8807
X7.275Y-3.8807
X7.325Y-3.7887
X7.523Y-5.8374
X7.6277Y-5.8401
X7.673Y-5.5776
X7.7277Y-5.6669
X5.525Y-5.1013
X5.575Y-5.1932
X5.775Y-5.1932
X5.825Y-5.1013
X7.898Y-5.1879
X8.0027Y-5.1906
X8.048Y-4.9281
X8.1027Y-5.0174
X6.275Y-2.945
X6.325Y-3.037
X6.525Y-3.037
X6.575Y-2.945
X6.275Y-3.695
X6.325Y-3.787
X6.525Y-3.787
X6.575Y-3.695
X4.025Y-4.6325
X4.075Y-4.7245
X4.275Y-4.7245
X4.325Y-4.6325
X7.025Y-4.5388
X7.075Y-4.6307
X7.275Y-4.6307
X7.325Y-4.5388
X5.525Y-2.1012
X5.575Y-2.1932
X5.775Y-2.1932
X5.825Y-2.1012
X6.275Y-2.195
X6.325Y-2.287
X6.525Y-2.287
X6.575Y-2.195
X7.775Y-4.1638
X7.825Y-4.2557
X8.025Y-4.2557
X8.075Y-4.1638
X5.525Y-4.3513
X5.575Y-4.4432
X5.775Y-4.4432
X5.825Y-4.3513
X5.525Y-2.8512
X5.575Y-2.9432
X5.775Y-2.9432
X5.825Y-2.8512
X3.275Y-5.3825
X3.325Y-5.4745
X3.525Y-5.4745
X3.575Y-5.3825
X4.775Y-2.945
X4.825Y-3.037
X5.025Y-3.037
X5.075Y-2.945
X4.775Y-2.195
X4.825Y-2.287
X5.025Y-2.287
X5.075Y-2.195
X7.025Y-2.2887
X7.075Y-2.3807
X7.275Y-2.3807
X7.325Y-2.2887
X4.775Y-3.695
X4.825Y-3.787
X5.025Y-3.787
X5.075Y-3.695
X4.025Y-2.3825
X4.075Y-2.4745
X4.275Y-2.4745
X4.325Y-2.3825
X4.775Y-5.195
X4.825Y-5.287
X5.025Y-5.287
X5.075Y-5.195
X7.025Y-3.0387
X7.075Y-3.1307
X7.275Y-3.1307
X7.325Y-3.0387
X5.525Y-3.6012
X5.575Y-3.6932
X5.775Y-3.6932
X5.825Y-3.6012
X3.275Y-2.3825
X3.325Y-2.4745
X3.525Y-2.4745
X3.575Y-2.3825
X4.775Y-4.445
X4.825Y-4.537
X5.025Y-4.537
X5.075Y-4.445
X4.025Y-5.3825
X4.075Y-5.4745
X4.275Y-5.4745
X4.325Y-5.3825
X3.275Y-3.1325
X3.325Y-3.2245
X3.525Y-3.2245
X3.575Y-3.1325
T9
X3.225Y-2.2825
X3.625Y-2.2825
X4.725Y-4.345
X5.125Y-4.345
X3.975Y-5.2825
X4.375Y-5.2825
X3.225Y-3.0325
X3.625Y-3.0325
X7.725Y-2.5637
X8.125Y-2.5637
X3.225Y-3.7825
X3.625Y-3.7825
X7.725Y-3.3137
X8.125Y-3.3137
X6.7619Y-5.4557
X6.9619Y-5.1093
X6.225Y-4.345
X6.625Y-4.345
X3.975Y-3.7825
X4.375Y-3.7825
X3.225Y-4.5325
X3.625Y-4.5325
X3.975Y-3.0325
X4.375Y-3.0325
X6.975Y-3.6887
X7.375Y-3.6887
X7.4114Y-5.8307
X7.6114Y-5.4843
X5.475Y-5.0012
X5.875Y-5.0012
X7.7864Y-5.1812
X7.9864Y-4.8348
X6.225Y-2.845
X6.625Y-2.845
X6.225Y-3.595
X6.625Y-3.595
X3.975Y-4.5325
X4.375Y-4.5325
X6.975Y-4.4387
X7.375Y-4.4387
X5.475Y-2.0012
X5.875Y-2.0012
X6.225Y-2.095
X6.625Y-2.095
X7.725Y-4.0637
X8.125Y-4.0637
X5.475Y-4.2512
X5.875Y-4.2512
X5.475Y-2.7512
X5.875Y-2.7512
X3.225Y-5.2825
X3.625Y-5.2825
X4.725Y-2.845
X5.125Y-2.845
X4.725Y-2.095
X5.125Y-2.095
X6.975Y-2.1887
X7.375Y-2.1887
X4.725Y-3.595
X5.125Y-3.595
X3.975Y-2.2825
X4.375Y-2.2825
X4.725Y-5.095
X5.125Y-5.095
X6.975Y-2.9387
X7.375Y-2.9387
X5.475Y-3.5012
X5.875Y-3.5012
T10
X8.0213Y-0.9791
X8.0213Y-1.2546
X8.1787Y-0.9791
X8.1787Y-1.2546
T11
X4.925Y-2.095
X7.175Y-2.1887
X4.925Y-3.595
X4.175Y-2.2825
X4.925Y-5.095
X7.175Y-2.9387
X5.675Y-3.5012
X3.425Y-2.2825
X4.925Y-4.345
X4.175Y-5.2825
X3.425Y-3.0325
X7.925Y-2.5637
X3.425Y-3.7825
X7.925Y-3.3137
X6.8619Y-5.2825
X6.425Y-4.345
X4.175Y-3.7825
X3.425Y-4.5325
X4.175Y-3.0325
X7.175Y-3.6887
X7.5114Y-5.6575
X5.675Y-5.0012
X7.8864Y-5.008
X6.425Y-2.845
X6.425Y-3.595
X4.175Y-4.5325
X7.175Y-4.4387
X5.675Y-2.0012
X6.425Y-2.095
X7.925Y-4.0637
X5.675Y-4.2512
X5.675Y-2.7512
X3.425Y-5.2825
X4.925Y-2.845
T12
X7.85Y-1.83
X8.1Y-5.86
T0
M30
