G04 #@! TF.GenerationSoftware,KiCad,Pcbnew,5.1.2*
G04 #@! TF.CreationDate,2019-07-09T19:24:22+01:00*
G04 #@! TF.ProjectId,ergosnap,6572676f-736e-4617-902e-6b696361645f,1.0*
G04 #@! TF.SameCoordinates,Original*
G04 #@! TF.FileFunction,Profile,NP*
%FSLAX46Y46*%
G04 Gerber Fmt 4.6, Leading zero omitted, Abs format (unit mm)*
G04 Created by KiCad (PCBNEW 5.1.2) date 2019-07-09 19:24:22*
%MOMM*%
%LPD*%
G04 APERTURE LIST*
%ADD10C,0.150000*%
%ADD11C,0.100000*%
G04 APERTURE END LIST*
D10*
X209677000Y-155067000D02*
G75*
G03X211836000Y-152654000I-127000J2286000D01*
G01*
X154940000Y-39624000D02*
X122428000Y-39624000D01*
X154940000Y-25146000D02*
X154940000Y-39624000D01*
X209550000Y-22860000D02*
X157226000Y-22860000D01*
X211836000Y-58674000D02*
X211836000Y-25146000D01*
X209677000Y-155067000D02*
X193167000Y-155067000D01*
X211836000Y-126619000D02*
X211836000Y-152654000D01*
X172212000Y-143002000D02*
X193167000Y-155067000D01*
X211836000Y-122174000D02*
X211836000Y-126619000D01*
X79644666Y-143256000D02*
G75*
G03X79644666Y-143256000I-1666666J0D01*
G01*
X75478000Y-143256000D02*
X80478000Y-143256000D01*
X77978000Y-140756000D02*
X77978000Y-145756000D01*
X211836000Y-110236000D02*
X211836000Y-122174000D01*
X211836000Y-58674000D02*
X211836000Y-110236000D01*
X211836000Y-25146000D02*
G75*
G03X209550000Y-22860000I-2286000J0D01*
G01*
X78232000Y-140716000D02*
X78232000Y-50546000D01*
X80518000Y-143002000D02*
X114808000Y-143002000D01*
X78232000Y-140716000D02*
G75*
G03X80518000Y-143002000I2286000J0D01*
G01*
X157226000Y-22860000D02*
G75*
G03X154940000Y-25146000I0J-2286000D01*
G01*
X80518000Y-48260000D02*
G75*
G03X78232000Y-50546000I0J-2286000D01*
G01*
X122428000Y-39624000D02*
X80518000Y-48260000D01*
X114808000Y-143002000D02*
X172212000Y-143002000D01*
D11*
X203077178Y-136418068D02*
X209677178Y-124986532D01*
X202584358Y-135671658D02*
X208784358Y-124932942D01*
X191845642Y-129471658D02*
X198045642Y-118732942D01*
X190952822Y-129418068D02*
X197552822Y-117986532D01*
X202584358Y-135671658D02*
X199120256Y-133671658D01*
X202530768Y-136564478D02*
X198720256Y-134364478D01*
X205320256Y-122932942D02*
X208784358Y-124932942D01*
X209530768Y-124440122D02*
X205720256Y-122240122D01*
X201509744Y-120732942D02*
X198045642Y-118732942D01*
X201909744Y-120040122D02*
X198099232Y-117840122D01*
X191845642Y-129471658D02*
X195309744Y-131471658D01*
X194909744Y-132164478D02*
X191099232Y-129964478D01*
X209530768Y-124440122D02*
G75*
G02X209677178Y-124986532I-200000J-346410D01*
G01*
X203077178Y-136418068D02*
G75*
G02X202530768Y-136564478I-346410J200000D01*
G01*
X191099232Y-129964478D02*
G75*
G02X190952822Y-129418068I200000J346410D01*
G01*
X197552822Y-117986532D02*
G75*
G02X198099232Y-117840122I346410J-200000D01*
G01*
X198720252Y-134364476D02*
G75*
G02X199120256Y-133671658I200004J346408D01*
G01*
X195309748Y-131471660D02*
G75*
G02X194909744Y-132164478I-200004J-346408D01*
G01*
X205320252Y-122932940D02*
G75*
G02X205720256Y-122240122I200004J346408D01*
G01*
X201909748Y-120040124D02*
G75*
G02X201509744Y-120732942I-200004J-346408D01*
G01*
X193552178Y-152916068D02*
X200152178Y-141484532D01*
X193059358Y-152169658D02*
X199259358Y-141430942D01*
X182320642Y-145969658D02*
X188520642Y-135230942D01*
X181427822Y-145916068D02*
X188027822Y-134484532D01*
X193059358Y-152169658D02*
X189595256Y-150169658D01*
X193005768Y-153062478D02*
X189195256Y-150862478D01*
X195795256Y-139430942D02*
X199259358Y-141430942D01*
X200005768Y-140938122D02*
X196195256Y-138738122D01*
X191984744Y-137230942D02*
X188520642Y-135230942D01*
X192384744Y-136538122D02*
X188574232Y-134338122D01*
X182320642Y-145969658D02*
X185784744Y-147969658D01*
X185384744Y-148662478D02*
X181574232Y-146462478D01*
X200005768Y-140938122D02*
G75*
G02X200152178Y-141484532I-200000J-346410D01*
G01*
X193552178Y-152916068D02*
G75*
G02X193005768Y-153062478I-346410J200000D01*
G01*
X181574232Y-146462478D02*
G75*
G02X181427822Y-145916068I200000J346410D01*
G01*
X188027822Y-134484532D02*
G75*
G02X188574232Y-134338122I346410J-200000D01*
G01*
X189195252Y-150862476D02*
G75*
G02X189595256Y-150169658I200004J346408D01*
G01*
X185784748Y-147969660D02*
G75*
G02X185384744Y-148662478I-200004J-346408D01*
G01*
X195795252Y-139430940D02*
G75*
G02X196195256Y-138738122I200004J346408D01*
G01*
X192384748Y-136538124D02*
G75*
G02X191984744Y-137230942I-200004J-346408D01*
G01*
X177054178Y-143391018D02*
X183654178Y-131959482D01*
X176561358Y-142644608D02*
X182761358Y-131905892D01*
X165822642Y-136444608D02*
X172022642Y-125705892D01*
X164929822Y-136391018D02*
X171529822Y-124959482D01*
X176561358Y-142644608D02*
X173097256Y-140644608D01*
X176507768Y-143537428D02*
X172697256Y-141337428D01*
X179297256Y-129905892D02*
X182761358Y-131905892D01*
X183507768Y-131413072D02*
X179697256Y-129213072D01*
X175486744Y-127705892D02*
X172022642Y-125705892D01*
X175886744Y-127013072D02*
X172076232Y-124813072D01*
X165822642Y-136444608D02*
X169286744Y-138444608D01*
X168886744Y-139137428D02*
X165076232Y-136937428D01*
X183507768Y-131413072D02*
G75*
G02X183654178Y-131959482I-200000J-346410D01*
G01*
X177054178Y-143391018D02*
G75*
G02X176507768Y-143537428I-346410J200000D01*
G01*
X165076232Y-136937428D02*
G75*
G02X164929822Y-136391018I200000J346410D01*
G01*
X171529822Y-124959482D02*
G75*
G02X172076232Y-124813072I346410J-200000D01*
G01*
X172697252Y-141337426D02*
G75*
G02X173097256Y-140644608I200004J346408D01*
G01*
X169286748Y-138444610D02*
G75*
G02X168886744Y-139137428I-200004J-346408D01*
G01*
X179297252Y-129905890D02*
G75*
G02X179697256Y-129213072I200004J346408D01*
G01*
X175886748Y-127013074D02*
G75*
G02X175486744Y-127705892I-200004J-346408D01*
G01*
X137545000Y-134031750D02*
X150745000Y-134031750D01*
X137945000Y-133231750D02*
X150345000Y-133231750D01*
X137945000Y-120831750D02*
X150345000Y-120831750D01*
X137545000Y-120031750D02*
X150745000Y-120031750D01*
X137945000Y-133231750D02*
X137945000Y-129231750D01*
X137145000Y-133631750D02*
X137145000Y-129231750D01*
X150345000Y-129231750D02*
X150345000Y-133231750D01*
X151145000Y-133631750D02*
X151145000Y-129231750D01*
X150345000Y-124831750D02*
X150345000Y-120831750D01*
X151145000Y-124831750D02*
X151145000Y-120431750D01*
X137945000Y-120831750D02*
X137945000Y-124831750D01*
X137145000Y-124831750D02*
X137145000Y-120431750D01*
X151145000Y-133631750D02*
G75*
G02X150745000Y-134031750I-400000J0D01*
G01*
X137545000Y-134031750D02*
G75*
G02X137145000Y-133631750I0J400000D01*
G01*
X137145000Y-120431750D02*
G75*
G02X137545000Y-120031750I400000J0D01*
G01*
X150745000Y-120031750D02*
G75*
G02X151145000Y-120431750I0J-400000D01*
G01*
X137145000Y-129231745D02*
G75*
G02X137945000Y-129231750I400000J-5D01*
G01*
X137945000Y-124831755D02*
G75*
G02X137145000Y-124831750I-400000J5D01*
G01*
X150345000Y-129231745D02*
G75*
G02X151145000Y-129231750I400000J-5D01*
G01*
X151145000Y-124831755D02*
G75*
G02X150345000Y-124831750I-400000J5D01*
G01*
X118495000Y-136413000D02*
X131695000Y-136413000D01*
X118895000Y-135613000D02*
X131295000Y-135613000D01*
X118895000Y-123213000D02*
X131295000Y-123213000D01*
X118495000Y-122413000D02*
X131695000Y-122413000D01*
X118895000Y-135613000D02*
X118895000Y-131613000D01*
X118095000Y-136013000D02*
X118095000Y-131613000D01*
X131295000Y-131613000D02*
X131295000Y-135613000D01*
X132095000Y-136013000D02*
X132095000Y-131613000D01*
X131295000Y-127213000D02*
X131295000Y-123213000D01*
X132095000Y-127213000D02*
X132095000Y-122813000D01*
X118895000Y-123213000D02*
X118895000Y-127213000D01*
X118095000Y-127213000D02*
X118095000Y-122813000D01*
X132095000Y-136013000D02*
G75*
G02X131695000Y-136413000I-400000J0D01*
G01*
X118495000Y-136413000D02*
G75*
G02X118095000Y-136013000I0J400000D01*
G01*
X118095000Y-122813000D02*
G75*
G02X118495000Y-122413000I400000J0D01*
G01*
X131695000Y-122413000D02*
G75*
G02X132095000Y-122813000I0J-400000D01*
G01*
X118095000Y-131612995D02*
G75*
G02X118895000Y-131613000I400000J-5D01*
G01*
X118895000Y-127213005D02*
G75*
G02X118095000Y-127213000I-400000J5D01*
G01*
X131295000Y-131612995D02*
G75*
G02X132095000Y-131613000I400000J-5D01*
G01*
X132095000Y-127213005D02*
G75*
G02X131295000Y-127213000I-400000J5D01*
G01*
X99445000Y-141175500D02*
X112645000Y-141175500D01*
X99845000Y-140375500D02*
X112245000Y-140375500D01*
X99845000Y-127975500D02*
X112245000Y-127975500D01*
X99445000Y-127175500D02*
X112645000Y-127175500D01*
X99845000Y-140375500D02*
X99845000Y-136375500D01*
X99045000Y-140775500D02*
X99045000Y-136375500D01*
X112245000Y-136375500D02*
X112245000Y-140375500D01*
X113045000Y-140775500D02*
X113045000Y-136375500D01*
X112245000Y-131975500D02*
X112245000Y-127975500D01*
X113045000Y-131975500D02*
X113045000Y-127575500D01*
X99845000Y-127975500D02*
X99845000Y-131975500D01*
X99045000Y-131975500D02*
X99045000Y-127575500D01*
X113045000Y-140775500D02*
G75*
G02X112645000Y-141175500I-400000J0D01*
G01*
X99445000Y-141175500D02*
G75*
G02X99045000Y-140775500I0J400000D01*
G01*
X99045000Y-127575500D02*
G75*
G02X99445000Y-127175500I400000J0D01*
G01*
X112645000Y-127175500D02*
G75*
G02X113045000Y-127575500I0J-400000D01*
G01*
X99045000Y-136375495D02*
G75*
G02X99845000Y-136375500I400000J-5D01*
G01*
X99845000Y-131975505D02*
G75*
G02X99045000Y-131975500I-400000J5D01*
G01*
X112245000Y-136375495D02*
G75*
G02X113045000Y-136375500I400000J-5D01*
G01*
X113045000Y-131975505D02*
G75*
G02X112245000Y-131975500I-400000J5D01*
G01*
X80395000Y-141175500D02*
X93595000Y-141175500D01*
X80795000Y-140375500D02*
X93195000Y-140375500D01*
X80795000Y-127975500D02*
X93195000Y-127975500D01*
X80395000Y-127175500D02*
X93595000Y-127175500D01*
X80795000Y-140375500D02*
X80795000Y-136375500D01*
X79995000Y-140775500D02*
X79995000Y-136375500D01*
X93195000Y-136375500D02*
X93195000Y-140375500D01*
X93995000Y-140775500D02*
X93995000Y-136375500D01*
X93195000Y-131975500D02*
X93195000Y-127975500D01*
X93995000Y-131975500D02*
X93995000Y-127575500D01*
X80795000Y-127975500D02*
X80795000Y-131975500D01*
X79995000Y-131975500D02*
X79995000Y-127575500D01*
X93995000Y-140775500D02*
G75*
G02X93595000Y-141175500I-400000J0D01*
G01*
X80395000Y-141175500D02*
G75*
G02X79995000Y-140775500I0J400000D01*
G01*
X79995000Y-127575500D02*
G75*
G02X80395000Y-127175500I400000J0D01*
G01*
X93595000Y-127175500D02*
G75*
G02X93995000Y-127575500I0J-400000D01*
G01*
X79995000Y-136375495D02*
G75*
G02X80795000Y-136375500I400000J-5D01*
G01*
X80795000Y-131975505D02*
G75*
G02X79995000Y-131975500I-400000J5D01*
G01*
X93195000Y-136375495D02*
G75*
G02X93995000Y-136375500I400000J-5D01*
G01*
X93995000Y-131975505D02*
G75*
G02X93195000Y-131975500I-400000J5D01*
G01*
X194695000Y-110219250D02*
X207895000Y-110219250D01*
X195095000Y-109419250D02*
X207495000Y-109419250D01*
X195095000Y-97019250D02*
X207495000Y-97019250D01*
X194695000Y-96219250D02*
X207895000Y-96219250D01*
X195095000Y-109419250D02*
X195095000Y-105419250D01*
X194295000Y-109819250D02*
X194295000Y-105419250D01*
X207495000Y-105419250D02*
X207495000Y-109419250D01*
X208295000Y-109819250D02*
X208295000Y-105419250D01*
X207495000Y-101019250D02*
X207495000Y-97019250D01*
X208295000Y-101019250D02*
X208295000Y-96619250D01*
X195095000Y-97019250D02*
X195095000Y-101019250D01*
X194295000Y-101019250D02*
X194295000Y-96619250D01*
X208295000Y-109819250D02*
G75*
G02X207895000Y-110219250I-400000J0D01*
G01*
X194695000Y-110219250D02*
G75*
G02X194295000Y-109819250I0J400000D01*
G01*
X194295000Y-96619250D02*
G75*
G02X194695000Y-96219250I400000J0D01*
G01*
X207895000Y-96219250D02*
G75*
G02X208295000Y-96619250I0J-400000D01*
G01*
X194295000Y-105419245D02*
G75*
G02X195095000Y-105419250I400000J-5D01*
G01*
X195095000Y-101019255D02*
G75*
G02X194295000Y-101019250I-400000J5D01*
G01*
X207495000Y-105419245D02*
G75*
G02X208295000Y-105419250I400000J-5D01*
G01*
X208295000Y-101019255D02*
G75*
G02X207495000Y-101019250I-400000J5D01*
G01*
X194695000Y-91169250D02*
X207895000Y-91169250D01*
X195095000Y-90369250D02*
X207495000Y-90369250D01*
X195095000Y-77969250D02*
X207495000Y-77969250D01*
X194695000Y-77169250D02*
X207895000Y-77169250D01*
X195095000Y-90369250D02*
X195095000Y-86369250D01*
X194295000Y-90769250D02*
X194295000Y-86369250D01*
X207495000Y-86369250D02*
X207495000Y-90369250D01*
X208295000Y-90769250D02*
X208295000Y-86369250D01*
X207495000Y-81969250D02*
X207495000Y-77969250D01*
X208295000Y-81969250D02*
X208295000Y-77569250D01*
X195095000Y-77969250D02*
X195095000Y-81969250D01*
X194295000Y-81969250D02*
X194295000Y-77569250D01*
X208295000Y-90769250D02*
G75*
G02X207895000Y-91169250I-400000J0D01*
G01*
X194695000Y-91169250D02*
G75*
G02X194295000Y-90769250I0J400000D01*
G01*
X194295000Y-77569250D02*
G75*
G02X194695000Y-77169250I400000J0D01*
G01*
X207895000Y-77169250D02*
G75*
G02X208295000Y-77569250I0J-400000D01*
G01*
X194295000Y-86369245D02*
G75*
G02X195095000Y-86369250I400000J-5D01*
G01*
X195095000Y-81969255D02*
G75*
G02X194295000Y-81969250I-400000J5D01*
G01*
X207495000Y-86369245D02*
G75*
G02X208295000Y-86369250I400000J-5D01*
G01*
X208295000Y-81969255D02*
G75*
G02X207495000Y-81969250I-400000J5D01*
G01*
X194695000Y-72119250D02*
X207895000Y-72119250D01*
X195095000Y-71319250D02*
X207495000Y-71319250D01*
X195095000Y-58919250D02*
X207495000Y-58919250D01*
X194695000Y-58119250D02*
X207895000Y-58119250D01*
X195095000Y-71319250D02*
X195095000Y-67319250D01*
X194295000Y-71719250D02*
X194295000Y-67319250D01*
X207495000Y-67319250D02*
X207495000Y-71319250D01*
X208295000Y-71719250D02*
X208295000Y-67319250D01*
X207495000Y-62919250D02*
X207495000Y-58919250D01*
X208295000Y-62919250D02*
X208295000Y-58519250D01*
X195095000Y-58919250D02*
X195095000Y-62919250D01*
X194295000Y-62919250D02*
X194295000Y-58519250D01*
X208295000Y-71719250D02*
G75*
G02X207895000Y-72119250I-400000J0D01*
G01*
X194695000Y-72119250D02*
G75*
G02X194295000Y-71719250I0J400000D01*
G01*
X194295000Y-58519250D02*
G75*
G02X194695000Y-58119250I400000J0D01*
G01*
X207895000Y-58119250D02*
G75*
G02X208295000Y-58519250I0J-400000D01*
G01*
X194295000Y-67319245D02*
G75*
G02X195095000Y-67319250I400000J-5D01*
G01*
X195095000Y-62919255D02*
G75*
G02X194295000Y-62919250I-400000J5D01*
G01*
X207495000Y-67319245D02*
G75*
G02X208295000Y-67319250I400000J-5D01*
G01*
X208295000Y-62919255D02*
G75*
G02X207495000Y-62919250I-400000J5D01*
G01*
X175645000Y-119744250D02*
X188845000Y-119744250D01*
X176045000Y-118944250D02*
X188445000Y-118944250D01*
X176045000Y-106544250D02*
X188445000Y-106544250D01*
X175645000Y-105744250D02*
X188845000Y-105744250D01*
X176045000Y-118944250D02*
X176045000Y-114944250D01*
X175245000Y-119344250D02*
X175245000Y-114944250D01*
X188445000Y-114944250D02*
X188445000Y-118944250D01*
X189245000Y-119344250D02*
X189245000Y-114944250D01*
X188445000Y-110544250D02*
X188445000Y-106544250D01*
X189245000Y-110544250D02*
X189245000Y-106144250D01*
X176045000Y-106544250D02*
X176045000Y-110544250D01*
X175245000Y-110544250D02*
X175245000Y-106144250D01*
X189245000Y-119344250D02*
G75*
G02X188845000Y-119744250I-400000J0D01*
G01*
X175645000Y-119744250D02*
G75*
G02X175245000Y-119344250I0J400000D01*
G01*
X175245000Y-106144250D02*
G75*
G02X175645000Y-105744250I400000J0D01*
G01*
X188845000Y-105744250D02*
G75*
G02X189245000Y-106144250I0J-400000D01*
G01*
X175245000Y-114944245D02*
G75*
G02X176045000Y-114944250I400000J-5D01*
G01*
X176045000Y-110544255D02*
G75*
G02X175245000Y-110544250I-400000J5D01*
G01*
X188445000Y-114944245D02*
G75*
G02X189245000Y-114944250I400000J-5D01*
G01*
X189245000Y-110544255D02*
G75*
G02X188445000Y-110544250I-400000J5D01*
G01*
X175645000Y-100694250D02*
X188845000Y-100694250D01*
X176045000Y-99894250D02*
X188445000Y-99894250D01*
X176045000Y-87494250D02*
X188445000Y-87494250D01*
X175645000Y-86694250D02*
X188845000Y-86694250D01*
X176045000Y-99894250D02*
X176045000Y-95894250D01*
X175245000Y-100294250D02*
X175245000Y-95894250D01*
X188445000Y-95894250D02*
X188445000Y-99894250D01*
X189245000Y-100294250D02*
X189245000Y-95894250D01*
X188445000Y-91494250D02*
X188445000Y-87494250D01*
X189245000Y-91494250D02*
X189245000Y-87094250D01*
X176045000Y-87494250D02*
X176045000Y-91494250D01*
X175245000Y-91494250D02*
X175245000Y-87094250D01*
X189245000Y-100294250D02*
G75*
G02X188845000Y-100694250I-400000J0D01*
G01*
X175645000Y-100694250D02*
G75*
G02X175245000Y-100294250I0J400000D01*
G01*
X175245000Y-87094250D02*
G75*
G02X175645000Y-86694250I400000J0D01*
G01*
X188845000Y-86694250D02*
G75*
G02X189245000Y-87094250I0J-400000D01*
G01*
X175245000Y-95894245D02*
G75*
G02X176045000Y-95894250I400000J-5D01*
G01*
X176045000Y-91494255D02*
G75*
G02X175245000Y-91494250I-400000J5D01*
G01*
X188445000Y-95894245D02*
G75*
G02X189245000Y-95894250I400000J-5D01*
G01*
X189245000Y-91494255D02*
G75*
G02X188445000Y-91494250I-400000J5D01*
G01*
X175645000Y-81644250D02*
X188845000Y-81644250D01*
X176045000Y-80844250D02*
X188445000Y-80844250D01*
X176045000Y-68444250D02*
X188445000Y-68444250D01*
X175645000Y-67644250D02*
X188845000Y-67644250D01*
X176045000Y-80844250D02*
X176045000Y-76844250D01*
X175245000Y-81244250D02*
X175245000Y-76844250D01*
X188445000Y-76844250D02*
X188445000Y-80844250D01*
X189245000Y-81244250D02*
X189245000Y-76844250D01*
X188445000Y-72444250D02*
X188445000Y-68444250D01*
X189245000Y-72444250D02*
X189245000Y-68044250D01*
X176045000Y-68444250D02*
X176045000Y-72444250D01*
X175245000Y-72444250D02*
X175245000Y-68044250D01*
X189245000Y-81244250D02*
G75*
G02X188845000Y-81644250I-400000J0D01*
G01*
X175645000Y-81644250D02*
G75*
G02X175245000Y-81244250I0J400000D01*
G01*
X175245000Y-68044250D02*
G75*
G02X175645000Y-67644250I400000J0D01*
G01*
X188845000Y-67644250D02*
G75*
G02X189245000Y-68044250I0J-400000D01*
G01*
X175245000Y-76844245D02*
G75*
G02X176045000Y-76844250I400000J-5D01*
G01*
X176045000Y-72444255D02*
G75*
G02X175245000Y-72444250I-400000J5D01*
G01*
X188445000Y-76844245D02*
G75*
G02X189245000Y-76844250I400000J-5D01*
G01*
X189245000Y-72444255D02*
G75*
G02X188445000Y-72444250I-400000J5D01*
G01*
X175645000Y-62594250D02*
X188845000Y-62594250D01*
X176045000Y-61794250D02*
X188445000Y-61794250D01*
X176045000Y-49394250D02*
X188445000Y-49394250D01*
X175645000Y-48594250D02*
X188845000Y-48594250D01*
X176045000Y-61794250D02*
X176045000Y-57794250D01*
X175245000Y-62194250D02*
X175245000Y-57794250D01*
X188445000Y-57794250D02*
X188445000Y-61794250D01*
X189245000Y-62194250D02*
X189245000Y-57794250D01*
X188445000Y-53394250D02*
X188445000Y-49394250D01*
X189245000Y-53394250D02*
X189245000Y-48994250D01*
X176045000Y-49394250D02*
X176045000Y-53394250D01*
X175245000Y-53394250D02*
X175245000Y-48994250D01*
X189245000Y-62194250D02*
G75*
G02X188845000Y-62594250I-400000J0D01*
G01*
X175645000Y-62594250D02*
G75*
G02X175245000Y-62194250I0J400000D01*
G01*
X175245000Y-48994250D02*
G75*
G02X175645000Y-48594250I400000J0D01*
G01*
X188845000Y-48594250D02*
G75*
G02X189245000Y-48994250I0J-400000D01*
G01*
X175245000Y-57794245D02*
G75*
G02X176045000Y-57794250I400000J-5D01*
G01*
X176045000Y-53394255D02*
G75*
G02X175245000Y-53394250I-400000J5D01*
G01*
X188445000Y-57794245D02*
G75*
G02X189245000Y-57794250I400000J-5D01*
G01*
X189245000Y-53394255D02*
G75*
G02X188445000Y-53394250I-400000J5D01*
G01*
X156595000Y-117363000D02*
X169795000Y-117363000D01*
X156995000Y-116563000D02*
X169395000Y-116563000D01*
X156995000Y-104163000D02*
X169395000Y-104163000D01*
X156595000Y-103363000D02*
X169795000Y-103363000D01*
X156995000Y-116563000D02*
X156995000Y-112563000D01*
X156195000Y-116963000D02*
X156195000Y-112563000D01*
X169395000Y-112563000D02*
X169395000Y-116563000D01*
X170195000Y-116963000D02*
X170195000Y-112563000D01*
X169395000Y-108163000D02*
X169395000Y-104163000D01*
X170195000Y-108163000D02*
X170195000Y-103763000D01*
X156995000Y-104163000D02*
X156995000Y-108163000D01*
X156195000Y-108163000D02*
X156195000Y-103763000D01*
X170195000Y-116963000D02*
G75*
G02X169795000Y-117363000I-400000J0D01*
G01*
X156595000Y-117363000D02*
G75*
G02X156195000Y-116963000I0J400000D01*
G01*
X156195000Y-103763000D02*
G75*
G02X156595000Y-103363000I400000J0D01*
G01*
X169795000Y-103363000D02*
G75*
G02X170195000Y-103763000I0J-400000D01*
G01*
X156195000Y-112562995D02*
G75*
G02X156995000Y-112563000I400000J-5D01*
G01*
X156995000Y-108163005D02*
G75*
G02X156195000Y-108163000I-400000J5D01*
G01*
X169395000Y-112562995D02*
G75*
G02X170195000Y-112563000I400000J-5D01*
G01*
X170195000Y-108163005D02*
G75*
G02X169395000Y-108163000I-400000J5D01*
G01*
X156595000Y-98313000D02*
X169795000Y-98313000D01*
X156995000Y-97513000D02*
X169395000Y-97513000D01*
X156995000Y-85113000D02*
X169395000Y-85113000D01*
X156595000Y-84313000D02*
X169795000Y-84313000D01*
X156995000Y-97513000D02*
X156995000Y-93513000D01*
X156195000Y-97913000D02*
X156195000Y-93513000D01*
X169395000Y-93513000D02*
X169395000Y-97513000D01*
X170195000Y-97913000D02*
X170195000Y-93513000D01*
X169395000Y-89113000D02*
X169395000Y-85113000D01*
X170195000Y-89113000D02*
X170195000Y-84713000D01*
X156995000Y-85113000D02*
X156995000Y-89113000D01*
X156195000Y-89113000D02*
X156195000Y-84713000D01*
X170195000Y-97913000D02*
G75*
G02X169795000Y-98313000I-400000J0D01*
G01*
X156595000Y-98313000D02*
G75*
G02X156195000Y-97913000I0J400000D01*
G01*
X156195000Y-84713000D02*
G75*
G02X156595000Y-84313000I400000J0D01*
G01*
X169795000Y-84313000D02*
G75*
G02X170195000Y-84713000I0J-400000D01*
G01*
X156195000Y-93512995D02*
G75*
G02X156995000Y-93513000I400000J-5D01*
G01*
X156995000Y-89113005D02*
G75*
G02X156195000Y-89113000I-400000J5D01*
G01*
X169395000Y-93512995D02*
G75*
G02X170195000Y-93513000I400000J-5D01*
G01*
X170195000Y-89113005D02*
G75*
G02X169395000Y-89113000I-400000J5D01*
G01*
X156595000Y-79263000D02*
X169795000Y-79263000D01*
X156995000Y-78463000D02*
X169395000Y-78463000D01*
X156995000Y-66063000D02*
X169395000Y-66063000D01*
X156595000Y-65263000D02*
X169795000Y-65263000D01*
X156995000Y-78463000D02*
X156995000Y-74463000D01*
X156195000Y-78863000D02*
X156195000Y-74463000D01*
X169395000Y-74463000D02*
X169395000Y-78463000D01*
X170195000Y-78863000D02*
X170195000Y-74463000D01*
X169395000Y-70063000D02*
X169395000Y-66063000D01*
X170195000Y-70063000D02*
X170195000Y-65663000D01*
X156995000Y-66063000D02*
X156995000Y-70063000D01*
X156195000Y-70063000D02*
X156195000Y-65663000D01*
X170195000Y-78863000D02*
G75*
G02X169795000Y-79263000I-400000J0D01*
G01*
X156595000Y-79263000D02*
G75*
G02X156195000Y-78863000I0J400000D01*
G01*
X156195000Y-65663000D02*
G75*
G02X156595000Y-65263000I400000J0D01*
G01*
X169795000Y-65263000D02*
G75*
G02X170195000Y-65663000I0J-400000D01*
G01*
X156195000Y-74462995D02*
G75*
G02X156995000Y-74463000I400000J-5D01*
G01*
X156995000Y-70063005D02*
G75*
G02X156195000Y-70063000I-400000J5D01*
G01*
X169395000Y-74462995D02*
G75*
G02X170195000Y-74463000I400000J-5D01*
G01*
X170195000Y-70063005D02*
G75*
G02X169395000Y-70063000I-400000J5D01*
G01*
X156595000Y-60213000D02*
X169795000Y-60213000D01*
X156995000Y-59413000D02*
X169395000Y-59413000D01*
X156995000Y-47013000D02*
X169395000Y-47013000D01*
X156595000Y-46213000D02*
X169795000Y-46213000D01*
X156995000Y-59413000D02*
X156995000Y-55413000D01*
X156195000Y-59813000D02*
X156195000Y-55413000D01*
X169395000Y-55413000D02*
X169395000Y-59413000D01*
X170195000Y-59813000D02*
X170195000Y-55413000D01*
X169395000Y-51013000D02*
X169395000Y-47013000D01*
X170195000Y-51013000D02*
X170195000Y-46613000D01*
X156995000Y-47013000D02*
X156995000Y-51013000D01*
X156195000Y-51013000D02*
X156195000Y-46613000D01*
X170195000Y-59813000D02*
G75*
G02X169795000Y-60213000I-400000J0D01*
G01*
X156595000Y-60213000D02*
G75*
G02X156195000Y-59813000I0J400000D01*
G01*
X156195000Y-46613000D02*
G75*
G02X156595000Y-46213000I400000J0D01*
G01*
X169795000Y-46213000D02*
G75*
G02X170195000Y-46613000I0J-400000D01*
G01*
X156195000Y-55412995D02*
G75*
G02X156995000Y-55413000I400000J-5D01*
G01*
X156995000Y-51013005D02*
G75*
G02X156195000Y-51013000I-400000J5D01*
G01*
X169395000Y-55412995D02*
G75*
G02X170195000Y-55413000I400000J-5D01*
G01*
X170195000Y-51013005D02*
G75*
G02X169395000Y-51013000I-400000J5D01*
G01*
X137545000Y-114981750D02*
X150745000Y-114981750D01*
X137945000Y-114181750D02*
X150345000Y-114181750D01*
X137945000Y-101781750D02*
X150345000Y-101781750D01*
X137545000Y-100981750D02*
X150745000Y-100981750D01*
X137945000Y-114181750D02*
X137945000Y-110181750D01*
X137145000Y-114581750D02*
X137145000Y-110181750D01*
X150345000Y-110181750D02*
X150345000Y-114181750D01*
X151145000Y-114581750D02*
X151145000Y-110181750D01*
X150345000Y-105781750D02*
X150345000Y-101781750D01*
X151145000Y-105781750D02*
X151145000Y-101381750D01*
X137945000Y-101781750D02*
X137945000Y-105781750D01*
X137145000Y-105781750D02*
X137145000Y-101381750D01*
X151145000Y-114581750D02*
G75*
G02X150745000Y-114981750I-400000J0D01*
G01*
X137545000Y-114981750D02*
G75*
G02X137145000Y-114581750I0J400000D01*
G01*
X137145000Y-101381750D02*
G75*
G02X137545000Y-100981750I400000J0D01*
G01*
X150745000Y-100981750D02*
G75*
G02X151145000Y-101381750I0J-400000D01*
G01*
X137145000Y-110181745D02*
G75*
G02X137945000Y-110181750I400000J-5D01*
G01*
X137945000Y-105781755D02*
G75*
G02X137145000Y-105781750I-400000J5D01*
G01*
X150345000Y-110181745D02*
G75*
G02X151145000Y-110181750I400000J-5D01*
G01*
X151145000Y-105781755D02*
G75*
G02X150345000Y-105781750I-400000J5D01*
G01*
X137545000Y-95931750D02*
X150745000Y-95931750D01*
X137945000Y-95131750D02*
X150345000Y-95131750D01*
X137945000Y-82731750D02*
X150345000Y-82731750D01*
X137545000Y-81931750D02*
X150745000Y-81931750D01*
X137945000Y-95131750D02*
X137945000Y-91131750D01*
X137145000Y-95531750D02*
X137145000Y-91131750D01*
X150345000Y-91131750D02*
X150345000Y-95131750D01*
X151145000Y-95531750D02*
X151145000Y-91131750D01*
X150345000Y-86731750D02*
X150345000Y-82731750D01*
X151145000Y-86731750D02*
X151145000Y-82331750D01*
X137945000Y-82731750D02*
X137945000Y-86731750D01*
X137145000Y-86731750D02*
X137145000Y-82331750D01*
X151145000Y-95531750D02*
G75*
G02X150745000Y-95931750I-400000J0D01*
G01*
X137545000Y-95931750D02*
G75*
G02X137145000Y-95531750I0J400000D01*
G01*
X137145000Y-82331750D02*
G75*
G02X137545000Y-81931750I400000J0D01*
G01*
X150745000Y-81931750D02*
G75*
G02X151145000Y-82331750I0J-400000D01*
G01*
X137145000Y-91131745D02*
G75*
G02X137945000Y-91131750I400000J-5D01*
G01*
X137945000Y-86731755D02*
G75*
G02X137145000Y-86731750I-400000J5D01*
G01*
X150345000Y-91131745D02*
G75*
G02X151145000Y-91131750I400000J-5D01*
G01*
X151145000Y-86731755D02*
G75*
G02X150345000Y-86731750I-400000J5D01*
G01*
X137545000Y-76881750D02*
X150745000Y-76881750D01*
X137945000Y-76081750D02*
X150345000Y-76081750D01*
X137945000Y-63681750D02*
X150345000Y-63681750D01*
X137545000Y-62881750D02*
X150745000Y-62881750D01*
X137945000Y-76081750D02*
X137945000Y-72081750D01*
X137145000Y-76481750D02*
X137145000Y-72081750D01*
X150345000Y-72081750D02*
X150345000Y-76081750D01*
X151145000Y-76481750D02*
X151145000Y-72081750D01*
X150345000Y-67681750D02*
X150345000Y-63681750D01*
X151145000Y-67681750D02*
X151145000Y-63281750D01*
X137945000Y-63681750D02*
X137945000Y-67681750D01*
X137145000Y-67681750D02*
X137145000Y-63281750D01*
X151145000Y-76481750D02*
G75*
G02X150745000Y-76881750I-400000J0D01*
G01*
X137545000Y-76881750D02*
G75*
G02X137145000Y-76481750I0J400000D01*
G01*
X137145000Y-63281750D02*
G75*
G02X137545000Y-62881750I400000J0D01*
G01*
X150745000Y-62881750D02*
G75*
G02X151145000Y-63281750I0J-400000D01*
G01*
X137145000Y-72081745D02*
G75*
G02X137945000Y-72081750I400000J-5D01*
G01*
X137945000Y-67681755D02*
G75*
G02X137145000Y-67681750I-400000J5D01*
G01*
X150345000Y-72081745D02*
G75*
G02X151145000Y-72081750I400000J-5D01*
G01*
X151145000Y-67681755D02*
G75*
G02X150345000Y-67681750I-400000J5D01*
G01*
X137545000Y-57831750D02*
X150745000Y-57831750D01*
X137945000Y-57031750D02*
X150345000Y-57031750D01*
X137945000Y-44631750D02*
X150345000Y-44631750D01*
X137545000Y-43831750D02*
X150745000Y-43831750D01*
X137945000Y-57031750D02*
X137945000Y-53031750D01*
X137145000Y-57431750D02*
X137145000Y-53031750D01*
X150345000Y-53031750D02*
X150345000Y-57031750D01*
X151145000Y-57431750D02*
X151145000Y-53031750D01*
X150345000Y-48631750D02*
X150345000Y-44631750D01*
X151145000Y-48631750D02*
X151145000Y-44231750D01*
X137945000Y-44631750D02*
X137945000Y-48631750D01*
X137145000Y-48631750D02*
X137145000Y-44231750D01*
X151145000Y-57431750D02*
G75*
G02X150745000Y-57831750I-400000J0D01*
G01*
X137545000Y-57831750D02*
G75*
G02X137145000Y-57431750I0J400000D01*
G01*
X137145000Y-44231750D02*
G75*
G02X137545000Y-43831750I400000J0D01*
G01*
X150745000Y-43831750D02*
G75*
G02X151145000Y-44231750I0J-400000D01*
G01*
X137145000Y-53031745D02*
G75*
G02X137945000Y-53031750I400000J-5D01*
G01*
X137945000Y-48631755D02*
G75*
G02X137145000Y-48631750I-400000J5D01*
G01*
X150345000Y-53031745D02*
G75*
G02X151145000Y-53031750I400000J-5D01*
G01*
X151145000Y-48631755D02*
G75*
G02X150345000Y-48631750I-400000J5D01*
G01*
X118495000Y-117363000D02*
X131695000Y-117363000D01*
X118895000Y-116563000D02*
X131295000Y-116563000D01*
X118895000Y-104163000D02*
X131295000Y-104163000D01*
X118495000Y-103363000D02*
X131695000Y-103363000D01*
X118895000Y-116563000D02*
X118895000Y-112563000D01*
X118095000Y-116963000D02*
X118095000Y-112563000D01*
X131295000Y-112563000D02*
X131295000Y-116563000D01*
X132095000Y-116963000D02*
X132095000Y-112563000D01*
X131295000Y-108163000D02*
X131295000Y-104163000D01*
X132095000Y-108163000D02*
X132095000Y-103763000D01*
X118895000Y-104163000D02*
X118895000Y-108163000D01*
X118095000Y-108163000D02*
X118095000Y-103763000D01*
X132095000Y-116963000D02*
G75*
G02X131695000Y-117363000I-400000J0D01*
G01*
X118495000Y-117363000D02*
G75*
G02X118095000Y-116963000I0J400000D01*
G01*
X118095000Y-103763000D02*
G75*
G02X118495000Y-103363000I400000J0D01*
G01*
X131695000Y-103363000D02*
G75*
G02X132095000Y-103763000I0J-400000D01*
G01*
X118095000Y-112562995D02*
G75*
G02X118895000Y-112563000I400000J-5D01*
G01*
X118895000Y-108163005D02*
G75*
G02X118095000Y-108163000I-400000J5D01*
G01*
X131295000Y-112562995D02*
G75*
G02X132095000Y-112563000I400000J-5D01*
G01*
X132095000Y-108163005D02*
G75*
G02X131295000Y-108163000I-400000J5D01*
G01*
X118495000Y-98313000D02*
X131695000Y-98313000D01*
X118895000Y-97513000D02*
X131295000Y-97513000D01*
X118895000Y-85113000D02*
X131295000Y-85113000D01*
X118495000Y-84313000D02*
X131695000Y-84313000D01*
X118895000Y-97513000D02*
X118895000Y-93513000D01*
X118095000Y-97913000D02*
X118095000Y-93513000D01*
X131295000Y-93513000D02*
X131295000Y-97513000D01*
X132095000Y-97913000D02*
X132095000Y-93513000D01*
X131295000Y-89113000D02*
X131295000Y-85113000D01*
X132095000Y-89113000D02*
X132095000Y-84713000D01*
X118895000Y-85113000D02*
X118895000Y-89113000D01*
X118095000Y-89113000D02*
X118095000Y-84713000D01*
X132095000Y-97913000D02*
G75*
G02X131695000Y-98313000I-400000J0D01*
G01*
X118495000Y-98313000D02*
G75*
G02X118095000Y-97913000I0J400000D01*
G01*
X118095000Y-84713000D02*
G75*
G02X118495000Y-84313000I400000J0D01*
G01*
X131695000Y-84313000D02*
G75*
G02X132095000Y-84713000I0J-400000D01*
G01*
X118095000Y-93512995D02*
G75*
G02X118895000Y-93513000I400000J-5D01*
G01*
X118895000Y-89113005D02*
G75*
G02X118095000Y-89113000I-400000J5D01*
G01*
X131295000Y-93512995D02*
G75*
G02X132095000Y-93513000I400000J-5D01*
G01*
X132095000Y-89113005D02*
G75*
G02X131295000Y-89113000I-400000J5D01*
G01*
X118495000Y-79263000D02*
X131695000Y-79263000D01*
X118895000Y-78463000D02*
X131295000Y-78463000D01*
X118895000Y-66063000D02*
X131295000Y-66063000D01*
X118495000Y-65263000D02*
X131695000Y-65263000D01*
X118895000Y-78463000D02*
X118895000Y-74463000D01*
X118095000Y-78863000D02*
X118095000Y-74463000D01*
X131295000Y-74463000D02*
X131295000Y-78463000D01*
X132095000Y-78863000D02*
X132095000Y-74463000D01*
X131295000Y-70063000D02*
X131295000Y-66063000D01*
X132095000Y-70063000D02*
X132095000Y-65663000D01*
X118895000Y-66063000D02*
X118895000Y-70063000D01*
X118095000Y-70063000D02*
X118095000Y-65663000D01*
X132095000Y-78863000D02*
G75*
G02X131695000Y-79263000I-400000J0D01*
G01*
X118495000Y-79263000D02*
G75*
G02X118095000Y-78863000I0J400000D01*
G01*
X118095000Y-65663000D02*
G75*
G02X118495000Y-65263000I400000J0D01*
G01*
X131695000Y-65263000D02*
G75*
G02X132095000Y-65663000I0J-400000D01*
G01*
X118095000Y-74462995D02*
G75*
G02X118895000Y-74463000I400000J-5D01*
G01*
X118895000Y-70063005D02*
G75*
G02X118095000Y-70063000I-400000J5D01*
G01*
X131295000Y-74462995D02*
G75*
G02X132095000Y-74463000I400000J-5D01*
G01*
X132095000Y-70063005D02*
G75*
G02X131295000Y-70063000I-400000J5D01*
G01*
X118495000Y-60213000D02*
X131695000Y-60213000D01*
X118895000Y-59413000D02*
X131295000Y-59413000D01*
X118895000Y-47013000D02*
X131295000Y-47013000D01*
X118495000Y-46213000D02*
X131695000Y-46213000D01*
X118895000Y-59413000D02*
X118895000Y-55413000D01*
X118095000Y-59813000D02*
X118095000Y-55413000D01*
X131295000Y-55413000D02*
X131295000Y-59413000D01*
X132095000Y-59813000D02*
X132095000Y-55413000D01*
X131295000Y-51013000D02*
X131295000Y-47013000D01*
X132095000Y-51013000D02*
X132095000Y-46613000D01*
X118895000Y-47013000D02*
X118895000Y-51013000D01*
X118095000Y-51013000D02*
X118095000Y-46613000D01*
X132095000Y-59813000D02*
G75*
G02X131695000Y-60213000I-400000J0D01*
G01*
X118495000Y-60213000D02*
G75*
G02X118095000Y-59813000I0J400000D01*
G01*
X118095000Y-46613000D02*
G75*
G02X118495000Y-46213000I400000J0D01*
G01*
X131695000Y-46213000D02*
G75*
G02X132095000Y-46613000I0J-400000D01*
G01*
X118095000Y-55412995D02*
G75*
G02X118895000Y-55413000I400000J-5D01*
G01*
X118895000Y-51013005D02*
G75*
G02X118095000Y-51013000I-400000J5D01*
G01*
X131295000Y-55412995D02*
G75*
G02X132095000Y-55413000I400000J-5D01*
G01*
X132095000Y-51013005D02*
G75*
G02X131295000Y-51013000I-400000J5D01*
G01*
X99445000Y-122125500D02*
X112645000Y-122125500D01*
X99845000Y-121325500D02*
X112245000Y-121325500D01*
X99845000Y-108925500D02*
X112245000Y-108925500D01*
X99445000Y-108125500D02*
X112645000Y-108125500D01*
X99845000Y-121325500D02*
X99845000Y-117325500D01*
X99045000Y-121725500D02*
X99045000Y-117325500D01*
X112245000Y-117325500D02*
X112245000Y-121325500D01*
X113045000Y-121725500D02*
X113045000Y-117325500D01*
X112245000Y-112925500D02*
X112245000Y-108925500D01*
X113045000Y-112925500D02*
X113045000Y-108525500D01*
X99845000Y-108925500D02*
X99845000Y-112925500D01*
X99045000Y-112925500D02*
X99045000Y-108525500D01*
X113045000Y-121725500D02*
G75*
G02X112645000Y-122125500I-400000J0D01*
G01*
X99445000Y-122125500D02*
G75*
G02X99045000Y-121725500I0J400000D01*
G01*
X99045000Y-108525500D02*
G75*
G02X99445000Y-108125500I400000J0D01*
G01*
X112645000Y-108125500D02*
G75*
G02X113045000Y-108525500I0J-400000D01*
G01*
X99045000Y-117325495D02*
G75*
G02X99845000Y-117325500I400000J-5D01*
G01*
X99845000Y-112925505D02*
G75*
G02X99045000Y-112925500I-400000J5D01*
G01*
X112245000Y-117325495D02*
G75*
G02X113045000Y-117325500I400000J-5D01*
G01*
X113045000Y-112925505D02*
G75*
G02X112245000Y-112925500I-400000J5D01*
G01*
X99445000Y-103075500D02*
X112645000Y-103075500D01*
X99845000Y-102275500D02*
X112245000Y-102275500D01*
X99845000Y-89875500D02*
X112245000Y-89875500D01*
X99445000Y-89075500D02*
X112645000Y-89075500D01*
X99845000Y-102275500D02*
X99845000Y-98275500D01*
X99045000Y-102675500D02*
X99045000Y-98275500D01*
X112245000Y-98275500D02*
X112245000Y-102275500D01*
X113045000Y-102675500D02*
X113045000Y-98275500D01*
X112245000Y-93875500D02*
X112245000Y-89875500D01*
X113045000Y-93875500D02*
X113045000Y-89475500D01*
X99845000Y-89875500D02*
X99845000Y-93875500D01*
X99045000Y-93875500D02*
X99045000Y-89475500D01*
X113045000Y-102675500D02*
G75*
G02X112645000Y-103075500I-400000J0D01*
G01*
X99445000Y-103075500D02*
G75*
G02X99045000Y-102675500I0J400000D01*
G01*
X99045000Y-89475500D02*
G75*
G02X99445000Y-89075500I400000J0D01*
G01*
X112645000Y-89075500D02*
G75*
G02X113045000Y-89475500I0J-400000D01*
G01*
X99045000Y-98275495D02*
G75*
G02X99845000Y-98275500I400000J-5D01*
G01*
X99845000Y-93875505D02*
G75*
G02X99045000Y-93875500I-400000J5D01*
G01*
X112245000Y-98275495D02*
G75*
G02X113045000Y-98275500I400000J-5D01*
G01*
X113045000Y-93875505D02*
G75*
G02X112245000Y-93875500I-400000J5D01*
G01*
X99445000Y-84025500D02*
X112645000Y-84025500D01*
X99845000Y-83225500D02*
X112245000Y-83225500D01*
X99845000Y-70825500D02*
X112245000Y-70825500D01*
X99445000Y-70025500D02*
X112645000Y-70025500D01*
X99845000Y-83225500D02*
X99845000Y-79225500D01*
X99045000Y-83625500D02*
X99045000Y-79225500D01*
X112245000Y-79225500D02*
X112245000Y-83225500D01*
X113045000Y-83625500D02*
X113045000Y-79225500D01*
X112245000Y-74825500D02*
X112245000Y-70825500D01*
X113045000Y-74825500D02*
X113045000Y-70425500D01*
X99845000Y-70825500D02*
X99845000Y-74825500D01*
X99045000Y-74825500D02*
X99045000Y-70425500D01*
X113045000Y-83625500D02*
G75*
G02X112645000Y-84025500I-400000J0D01*
G01*
X99445000Y-84025500D02*
G75*
G02X99045000Y-83625500I0J400000D01*
G01*
X99045000Y-70425500D02*
G75*
G02X99445000Y-70025500I400000J0D01*
G01*
X112645000Y-70025500D02*
G75*
G02X113045000Y-70425500I0J-400000D01*
G01*
X99045000Y-79225495D02*
G75*
G02X99845000Y-79225500I400000J-5D01*
G01*
X99845000Y-74825505D02*
G75*
G02X99045000Y-74825500I-400000J5D01*
G01*
X112245000Y-79225495D02*
G75*
G02X113045000Y-79225500I400000J-5D01*
G01*
X113045000Y-74825505D02*
G75*
G02X112245000Y-74825500I-400000J5D01*
G01*
X99445000Y-64975500D02*
X112645000Y-64975500D01*
X99845000Y-64175500D02*
X112245000Y-64175500D01*
X99845000Y-51775500D02*
X112245000Y-51775500D01*
X99445000Y-50975500D02*
X112645000Y-50975500D01*
X99845000Y-64175500D02*
X99845000Y-60175500D01*
X99045000Y-64575500D02*
X99045000Y-60175500D01*
X112245000Y-60175500D02*
X112245000Y-64175500D01*
X113045000Y-64575500D02*
X113045000Y-60175500D01*
X112245000Y-55775500D02*
X112245000Y-51775500D01*
X113045000Y-55775500D02*
X113045000Y-51375500D01*
X99845000Y-51775500D02*
X99845000Y-55775500D01*
X99045000Y-55775500D02*
X99045000Y-51375500D01*
X113045000Y-64575500D02*
G75*
G02X112645000Y-64975500I-400000J0D01*
G01*
X99445000Y-64975500D02*
G75*
G02X99045000Y-64575500I0J400000D01*
G01*
X99045000Y-51375500D02*
G75*
G02X99445000Y-50975500I400000J0D01*
G01*
X112645000Y-50975500D02*
G75*
G02X113045000Y-51375500I0J-400000D01*
G01*
X99045000Y-60175495D02*
G75*
G02X99845000Y-60175500I400000J-5D01*
G01*
X99845000Y-55775505D02*
G75*
G02X99045000Y-55775500I-400000J5D01*
G01*
X112245000Y-60175495D02*
G75*
G02X113045000Y-60175500I400000J-5D01*
G01*
X113045000Y-55775505D02*
G75*
G02X112245000Y-55775500I-400000J5D01*
G01*
X80395000Y-122125500D02*
X93595000Y-122125500D01*
X80795000Y-121325500D02*
X93195000Y-121325500D01*
X80795000Y-108925500D02*
X93195000Y-108925500D01*
X80395000Y-108125500D02*
X93595000Y-108125500D01*
X80795000Y-121325500D02*
X80795000Y-117325500D01*
X79995000Y-121725500D02*
X79995000Y-117325500D01*
X93195000Y-117325500D02*
X93195000Y-121325500D01*
X93995000Y-121725500D02*
X93995000Y-117325500D01*
X93195000Y-112925500D02*
X93195000Y-108925500D01*
X93995000Y-112925500D02*
X93995000Y-108525500D01*
X80795000Y-108925500D02*
X80795000Y-112925500D01*
X79995000Y-112925500D02*
X79995000Y-108525500D01*
X93995000Y-121725500D02*
G75*
G02X93595000Y-122125500I-400000J0D01*
G01*
X80395000Y-122125500D02*
G75*
G02X79995000Y-121725500I0J400000D01*
G01*
X79995000Y-108525500D02*
G75*
G02X80395000Y-108125500I400000J0D01*
G01*
X93595000Y-108125500D02*
G75*
G02X93995000Y-108525500I0J-400000D01*
G01*
X79995000Y-117325495D02*
G75*
G02X80795000Y-117325500I400000J-5D01*
G01*
X80795000Y-112925505D02*
G75*
G02X79995000Y-112925500I-400000J5D01*
G01*
X93195000Y-117325495D02*
G75*
G02X93995000Y-117325500I400000J-5D01*
G01*
X93995000Y-112925505D02*
G75*
G02X93195000Y-112925500I-400000J5D01*
G01*
X80395000Y-103075500D02*
X93595000Y-103075500D01*
X80795000Y-102275500D02*
X93195000Y-102275500D01*
X80795000Y-89875500D02*
X93195000Y-89875500D01*
X80395000Y-89075500D02*
X93595000Y-89075500D01*
X80795000Y-102275500D02*
X80795000Y-98275500D01*
X79995000Y-102675500D02*
X79995000Y-98275500D01*
X93195000Y-98275500D02*
X93195000Y-102275500D01*
X93995000Y-102675500D02*
X93995000Y-98275500D01*
X93195000Y-93875500D02*
X93195000Y-89875500D01*
X93995000Y-93875500D02*
X93995000Y-89475500D01*
X80795000Y-89875500D02*
X80795000Y-93875500D01*
X79995000Y-93875500D02*
X79995000Y-89475500D01*
X93995000Y-102675500D02*
G75*
G02X93595000Y-103075500I-400000J0D01*
G01*
X80395000Y-103075500D02*
G75*
G02X79995000Y-102675500I0J400000D01*
G01*
X79995000Y-89475500D02*
G75*
G02X80395000Y-89075500I400000J0D01*
G01*
X93595000Y-89075500D02*
G75*
G02X93995000Y-89475500I0J-400000D01*
G01*
X79995000Y-98275495D02*
G75*
G02X80795000Y-98275500I400000J-5D01*
G01*
X80795000Y-93875505D02*
G75*
G02X79995000Y-93875500I-400000J5D01*
G01*
X93195000Y-98275495D02*
G75*
G02X93995000Y-98275500I400000J-5D01*
G01*
X93995000Y-93875505D02*
G75*
G02X93195000Y-93875500I-400000J5D01*
G01*
X80395000Y-84025500D02*
X93595000Y-84025500D01*
X80795000Y-83225500D02*
X93195000Y-83225500D01*
X80795000Y-70825500D02*
X93195000Y-70825500D01*
X80395000Y-70025500D02*
X93595000Y-70025500D01*
X80795000Y-83225500D02*
X80795000Y-79225500D01*
X79995000Y-83625500D02*
X79995000Y-79225500D01*
X93195000Y-79225500D02*
X93195000Y-83225500D01*
X93995000Y-83625500D02*
X93995000Y-79225500D01*
X93195000Y-74825500D02*
X93195000Y-70825500D01*
X93995000Y-74825500D02*
X93995000Y-70425500D01*
X80795000Y-70825500D02*
X80795000Y-74825500D01*
X79995000Y-74825500D02*
X79995000Y-70425500D01*
X93995000Y-83625500D02*
G75*
G02X93595000Y-84025500I-400000J0D01*
G01*
X80395000Y-84025500D02*
G75*
G02X79995000Y-83625500I0J400000D01*
G01*
X79995000Y-70425500D02*
G75*
G02X80395000Y-70025500I400000J0D01*
G01*
X93595000Y-70025500D02*
G75*
G02X93995000Y-70425500I0J-400000D01*
G01*
X79995000Y-79225495D02*
G75*
G02X80795000Y-79225500I400000J-5D01*
G01*
X80795000Y-74825505D02*
G75*
G02X79995000Y-74825500I-400000J5D01*
G01*
X93195000Y-79225495D02*
G75*
G02X93995000Y-79225500I400000J-5D01*
G01*
X93995000Y-74825505D02*
G75*
G02X93195000Y-74825500I-400000J5D01*
G01*
X80395000Y-64975500D02*
X93595000Y-64975500D01*
X80795000Y-64175500D02*
X93195000Y-64175500D01*
X80795000Y-51775500D02*
X93195000Y-51775500D01*
X80395000Y-50975500D02*
X93595000Y-50975500D01*
X80795000Y-64175500D02*
X80795000Y-60175500D01*
X79995000Y-64575500D02*
X79995000Y-60175500D01*
X93195000Y-60175500D02*
X93195000Y-64175500D01*
X93995000Y-64575500D02*
X93995000Y-60175500D01*
X93195000Y-55775500D02*
X93195000Y-51775500D01*
X93995000Y-55775500D02*
X93995000Y-51375500D01*
X80795000Y-51775500D02*
X80795000Y-55775500D01*
X79995000Y-55775500D02*
X79995000Y-51375500D01*
X93995000Y-64575500D02*
G75*
G02X93595000Y-64975500I-400000J0D01*
G01*
X80395000Y-64975500D02*
G75*
G02X79995000Y-64575500I0J400000D01*
G01*
X79995000Y-51375500D02*
G75*
G02X80395000Y-50975500I400000J0D01*
G01*
X93595000Y-50975500D02*
G75*
G02X93995000Y-51375500I0J-400000D01*
G01*
X79995000Y-60175495D02*
G75*
G02X80795000Y-60175500I400000J-5D01*
G01*
X80795000Y-55775505D02*
G75*
G02X79995000Y-55775500I-400000J5D01*
G01*
X93195000Y-60175495D02*
G75*
G02X93995000Y-60175500I400000J-5D01*
G01*
X93995000Y-55775505D02*
G75*
G02X93195000Y-55775500I-400000J5D01*
G01*
M02*
